<svg width="136" height="47" viewBox="0 0 136 47" fill="none" xmlns="http://www.w3.org/2000/svg">
<rect width="136" height="47" rx="23.5" fill="#00ADB5"/>
<g filter="url(#filter0_d_16_217)">
<path d="M44.06 17.364V30H40.982V24.798H36.194V30H33.116V17.364H36.194V22.314H40.982V17.364H44.06ZM47.83 18.912C47.29 18.912 46.846 18.756 46.498 18.444C46.162 18.12 45.994 17.724 45.994 17.256C45.994 16.776 46.162 16.38 46.498 16.068C46.846 15.744 47.29 15.582 47.83 15.582C48.358 15.582 48.79 15.744 49.126 16.068C49.474 16.38 49.648 16.776 49.648 17.256C49.648 17.724 49.474 18.12 49.126 18.444C48.79 18.756 48.358 18.912 47.83 18.912ZM49.36 19.956V30H46.282V19.956H49.36ZM54.6686 21.63C55.0286 21.078 55.4786 20.646 56.0186 20.334C56.5586 20.01 57.1586 19.848 57.8186 19.848V23.106H56.9726C56.2046 23.106 55.6286 23.274 55.2446 23.61C54.8606 23.934 54.6686 24.51 54.6686 25.338V30H51.5906V19.956H54.6686V21.63ZM68.7578 24.816C68.7578 25.104 68.7398 25.404 68.7038 25.716H61.7378C61.7858 26.34 61.9838 26.82 62.3318 27.156C62.6918 27.48 63.1298 27.642 63.6458 27.642C64.4138 27.642 64.9478 27.318 65.2478 26.67H68.5238C68.3558 27.33 68.0498 27.924 67.6058 28.452C67.1738 28.98 66.6278 29.394 65.9678 29.694C65.3078 29.994 64.5698 30.144 63.7538 30.144C62.7698 30.144 61.8938 29.934 61.1258 29.514C60.3578 29.094 59.7578 28.494 59.3258 27.714C58.8938 26.934 58.6778 26.022 58.6778 24.978C58.6778 23.934 58.8878 23.022 59.3078 22.242C59.7398 21.462 60.3398 20.862 61.1078 20.442C61.8758 20.022 62.7578 19.812 63.7538 19.812C64.7258 19.812 65.5898 20.016 66.3458 20.424C67.1018 20.832 67.6898 21.414 68.1098 22.17C68.5418 22.926 68.7578 23.808 68.7578 24.816ZM65.6078 24.006C65.6078 23.478 65.4278 23.058 65.0678 22.746C64.7078 22.434 64.2578 22.278 63.7178 22.278C63.2018 22.278 62.7638 22.428 62.4038 22.728C62.0558 23.028 61.8398 23.454 61.7558 24.006H65.6078ZM87.0121 19.848C88.2601 19.848 89.2501 20.226 89.9821 20.982C90.7261 21.738 91.0981 22.788 91.0981 24.132V30H88.0381V24.546C88.0381 23.898 87.8641 23.4 87.5161 23.052C87.1801 22.692 86.7121 22.512 86.1121 22.512C85.5121 22.512 85.0381 22.692 84.6901 23.052C84.3541 23.4 84.1861 23.898 84.1861 24.546V30H81.1261V24.546C81.1261 23.898 80.9521 23.4 80.6041 23.052C80.2681 22.692 79.8001 22.512 79.2001 22.512C78.6001 22.512 78.1261 22.692 77.7781 23.052C77.4421 23.4 77.2741 23.898 77.2741 24.546V30H74.1961V19.956H77.2741V21.216C77.5861 20.796 77.9941 20.466 78.4981 20.226C79.0021 19.974 79.5721 19.848 80.2081 19.848C80.9641 19.848 81.6361 20.01 82.2241 20.334C82.8241 20.658 83.2921 21.12 83.6281 21.72C83.9761 21.168 84.4501 20.718 85.0501 20.37C85.6501 20.022 86.3041 19.848 87.0121 19.848ZM102.719 24.816C102.719 25.104 102.701 25.404 102.665 25.716H95.6988C95.7468 26.34 95.9448 26.82 96.2928 27.156C96.6528 27.48 97.0908 27.642 97.6068 27.642C98.3748 27.642 98.9088 27.318 99.2088 26.67H102.485C102.317 27.33 102.011 27.924 101.567 28.452C101.135 28.98 100.589 29.394 99.9288 29.694C99.2688 29.994 98.5308 30.144 97.7148 30.144C96.7308 30.144 95.8548 29.934 95.0868 29.514C94.3188 29.094 93.7188 28.494 93.2868 27.714C92.8548 26.934 92.6388 26.022 92.6388 24.978C92.6388 23.934 92.8488 23.022 93.2688 22.242C93.7008 21.462 94.3008 20.862 95.0688 20.442C95.8368 20.022 96.7188 19.812 97.7148 19.812C98.6868 19.812 99.5508 20.016 100.307 20.424C101.063 20.832 101.651 21.414 102.071 22.17C102.503 22.926 102.719 23.808 102.719 24.816ZM99.5688 24.006C99.5688 23.478 99.3888 23.058 99.0288 22.746C98.6688 22.434 98.2188 22.278 97.6788 22.278C97.1628 22.278 96.7248 22.428 96.3648 22.728C96.0168 23.028 95.8008 23.454 95.7168 24.006H99.5688Z" fill="#EEEEEE"/>
</g>
<defs>
<filter id="filter0_d_16_217" x="29.116" y="15.582" width="77.6027" height="22.562" filterUnits="userSpaceOnUse" color-interpolation-filters="sRGB">
<feFlood flood-opacity="0" result="BackgroundImageFix"/>
<feColorMatrix in="SourceAlpha" type="matrix" values="0 0 0 0 0 0 0 0 0 0 0 0 0 0 0 0 0 0 127 0" result="hardAlpha"/>
<feOffset dy="4"/>
<feGaussianBlur stdDeviation="2"/>
<feComposite in2="hardAlpha" operator="out"/>
<feColorMatrix type="matrix" values="0 0 0 0 0 0 0 0 0 0 0 0 0 0 0 0 0 0 0.5 0"/>
<feBlend mode="normal" in2="BackgroundImageFix" result="effect1_dropShadow_16_217"/>
<feBlend mode="normal" in="SourceGraphic" in2="effect1_dropShadow_16_217" result="shape"/>
</filter>
</defs>
</svg>
